<?xml version="1.0" encoding="UTF-8"?>
<svg xmlns="http://www.w3.org/2000/svg" viewBox="0 0 800 400" width="100%" height="100%">
  <!-- Background with grid -->
  <defs>
    <pattern id="smallGrid" width="10" height="10" patternUnits="userSpaceOnUse">
      <path d="M 10 0 L 0 0 0 10" fill="none" stroke="#f0f0f0" stroke-width="0.5"/>
    </pattern>
    <pattern id="grid" width="100" height="100" patternUnits="userSpaceOnUse">
      <rect width="100" height="100" fill="url(#smallGrid)"/>
      <path d="M 100 0 L 0 0 0 100" fill="none" stroke="#e0e0e0" stroke-width="1"/>
    </pattern>
    <linearGradient id="goldGradient" x1="0%" y1="0%" x2="100%" y2="0%">
      <stop offset="0%" style="stop-color:#FFD700;stop-opacity:0.7" />
      <stop offset="100%" style="stop-color:#DAA520;stop-opacity:0.7" />
    </linearGradient>
    <linearGradient id="blueGradient" x1="0%" y1="0%" x2="100%" y2="0%">
      <stop offset="0%" style="stop-color:#4682B4;stop-opacity:0.7" />
      <stop offset="100%" style="stop-color:#1E90FF;stop-opacity:0.7" />
    </linearGradient>
  </defs>
  
  <!-- Background rectangle with grid -->
  <rect width="800" height="400" fill="url(#grid)" />
  
  <!-- Chart axes -->
  <line x1="50" y1="350" x2="750" y2="350" stroke="#333" stroke-width="2" />
  <line x1="50" y1="50" x2="50" y2="350" stroke="#333" stroke-width="2" />
  
  <!-- X-axis ticks and labels -->
  <g font-family="Arial" font-size="12" fill="#333">
    <text x="50" y="375" text-anchor="middle">Jan</text>
    <text x="190" y="375" text-anchor="middle">Mar</text>
    <text x="330" y="375" text-anchor="middle">May</text>
    <text x="470" y="375" text-anchor="middle">Jul</text>
    <text x="610" y="375" text-anchor="middle">Sep</text>
    <text x="750" y="375" text-anchor="middle">Nov</text>
  </g>
  
  <!-- Price line (historical data) -->
  <polyline 
    points="
      50,250
      100,230
      150,260
      200,240
      250,200
      300,180
      350,210
      400,190
      450,160
      500,170
      550,150
      600,120
      650,140
      700,130
      750,100
    "
    fill="none"
    stroke="#DAA520"
    stroke-width="2"
  />
  
  <!-- Pattern Recognition Areas -->
  <!-- Pattern 1: Cup and Handle -->
  <path d="M 150,260 Q 200,300 250,200 L 300,180 Q 275,190 300,180" fill="none" stroke="#FF5733" stroke-width="2" stroke-dasharray="5,3" />
  <text x="225" y="280" font-family="Arial" font-size="10" fill="#FF5733" text-anchor="middle">Cup & Handle</text>
  
  <!-- Pattern 2: Head and Shoulders -->
  <path d="M 350,210 L 400,190 L 450,160 L 500,170 L 550,150" fill="none" stroke="#3498DB" stroke-width="2" stroke-dasharray="5,3" />
  <text x="450" y="130" font-family="Arial" font-size="10" fill="#3498DB" text-anchor="middle">Head & Shoulders</text>
  
  <!-- Pattern 3: Double Bottom -->
  <path d="M 500,170 L 550,150 L 600,120 L 650,140" fill="none" stroke="#27AE60" stroke-width="2" stroke-dasharray="5,3" />
  <text x="575" y="100" font-family="Arial" font-size="10" fill="#27AE60" text-anchor="middle">Double Bottom</text>
  
  <!-- AI Analysis Overlay -->
  <!-- Trend prediction -->
  <path d="M 750,100 L 800,80" fill="none" stroke="#DAA520" stroke-width="2" stroke-dasharray="3,2" />
  
  <!-- Resistance and Support Levels -->
  <line x1="450" y1="155" x2="750" y2="155" stroke="#FF5733" stroke-width="1" stroke-dasharray="5,5" />
  <line x1="450" y1="175" x2="750" y2="175" stroke="#3498DB" stroke-width="1" stroke-dasharray="5,5" />
  <text x="760" y="155" font-family="Arial" font-size="10" fill="#FF5733">Resistance</text>
  <text x="760" y="175" font-family="Arial" font-size="10" fill="#3498DB">Support</text>
  
  <!-- Volatility Zones -->
  <rect x="300" y="160" width="100" height="50" fill="url(#goldGradient)" opacity="0.3" rx="5" ry="5" />
  <rect x="600" y="100" width="100" height="40" fill="url(#blueGradient)" opacity="0.3" rx="5" ry="5" />
  
  <!-- AI Detected Patterns Labels -->
  <g font-family="Arial" font-size="10" fill="#333">
    <rect x="50" y="50" width="150" height="80" fill="white" opacity="0.8" rx="5" ry="5" stroke="#ccc" stroke-width="1" />
    <text x="60" y="70" font-weight="bold">AI Pattern Detection</text>
    <text x="60" y="90" fill="#FF5733">● Historical Patterns</text>
    <text x="60" y="110" fill="#3498DB">● Market Cycles</text>
    <text x="60" y="130" fill="#27AE60">● Predictive Indicators</text>
  </g>
  
  <!-- Neural Network Visualization -->
  <g transform="translate(600, 50)">
    <!-- Nodes Layer 1 -->
    <circle cx="20" cy="20" r="5" fill="#6C5CE7" />
    <circle cx="20" cy="40" r="5" fill="#6C5CE7" />
    <circle cx="20" cy="60" r="5" fill="#6C5CE7" />
    
    <!-- Nodes Layer 2 -->
    <circle cx="50" cy="30" r="5" fill="#6C5CE7" />
    <circle cx="50" cy="50" r="5" fill="#6C5CE7" />
    
    <!-- Nodes Layer 3 -->
    <circle cx="80" cy="40" r="5" fill="#6C5CE7" />
    
    <!-- Connections Layer 1 to 2 -->
    <line x1="25" y1="20" x2="45" y2="30" stroke="#6C5CE7" stroke-width="1" opacity="0.7" />
    <line x1="25" y1="20" x2="45" y2="50" stroke="#6C5CE7" stroke-width="1" opacity="0.5" />
    <line x1="25" y1="40" x2="45" y2="30" stroke="#6C5CE7" stroke-width="1" opacity="0.6" />
    <line x1="25" y1="40" x2="45" y2="50" stroke="#6C5CE7" stroke-width="1" opacity="0.8" />
    <line x1="25" y1="60" x2="45" y2="30" stroke="#6C5CE7" stroke-width="1" opacity="0.4" />
    <line x1="25" y1="60" x2="45" y2="50" stroke="#6C5CE7" stroke-width="1" opacity="0.7" />
    
    <!-- Connections Layer 2 to 3 -->
    <line x1="55" y1="30" x2="75" y2="40" stroke="#6C5CE7" stroke-width="1" opacity="0.9" />
    <line x1="55" y1="50" x2="75" y2="40" stroke="#6C5CE7" stroke-width="1" opacity="0.8" />
    
    <rect x="0" y="0" width="100" height="70" fill="none" stroke="#ccc" stroke-width="1" rx="5" ry="5" />
    <text x="50" y="85" font-family="Arial" font-size="8" text-anchor="middle" fill="#6C5CE7">Neural Network</text>
  </g>
  
  <!-- Chart Title and Labels -->
  <text x="400" y="30" font-family="Arial" font-size="16" font-weight="bold" text-anchor="middle">AI Gold Price Pattern Recognition</text>
  <text x="20" y="200" font-family="Arial" font-size="12" font-weight="bold" transform="rotate(-90, 20, 200)" text-anchor="middle">Price (USD)</text>
  <text x="400" y="395" font-family="Arial" font-size="12" font-weight="bold" text-anchor="middle">Time Period</text>
</svg>