<svg xmlns="http://www.w3.org/2000/svg" viewBox="0 0 800 500">
  <!-- Background with subtle grid -->
  <rect width="800" height="500" fill="#f8f8f8" />
  <g id="grid" stroke="#e0e0e0" stroke-width="1">
    <!-- Vertical grid lines -->
    <line x1="100" y1="50" x2="100" y2="400" />
    <line x1="200" y1="50" x2="200" y2="400" />
    <line x1="300" y1="50" x2="300" y2="400" />
    <line x1="400" y1="50" x2="400" y2="400" />
    <line x1="500" y1="50" x2="500" y2="400" />
    <line x1="600" y1="50" x2="600" y2="400" />
    <line x1="700" y1="50" x2="700" y2="400" />
    
    <!-- Horizontal grid lines -->
    <line x1="100" y1="100" x2="700" y2="100" />
    <line x1="100" y1="150" x2="700" y2="150" />
    <line x1="100" y1="200" x2="700" y2="200" />
    <line x1="100" y1="250" x2="700" y2="250" />
    <line x1="100" y1="300" x2="700" y2="300" />
    <line x1="100" y1="350" x2="700" y2="350" />
  </g>
  
  <!-- Axes -->
  <g id="axes" stroke="#333" stroke-width="2">
    <line x1="100" y1="400" x2="700" y2="400" /> <!-- X-axis -->
    <line x1="100" y1="50" x2="100" y2="400" /> <!-- Y-axis -->
  </g>
  
  <!-- Y-axis labels (Gold Price in USD) -->
  <g id="y-labels" font-family="Arial" font-size="12" text-anchor="end">
    <text x="95" y="405" text-anchor="middle">0</text>
    <text x="95" y="355">$1,500</text>
    <text x="95" y="305">$1,700</text>
    <text x="95" y="255">$1,900</text>
    <text x="95" y="205">$2,100</text>
    <text x="95" y="155">$2,300</text>
    <text x="95" y="105">$2,500</text>
    <text x="95" y="55">$2,700</text>
  </g>
  
  <!-- X-axis labels (Time) -->
  <g id="x-labels" font-family="Arial" font-size="12" text-anchor="middle">
    <text x="100" y="420">Jan</text>
    <text x="200" y="420">Mar</text>
    <text x="300" y="420">May</text>
    <text x="400" y="420">Jul</text>
    <text x="500" y="420">Sep</text>
    <text x="600" y="420">Nov</text>
    <text x="700" y="420">Jan</text>
  </g>
  
  <!-- Gold price line chart -->
  <g id="gold-price">
    <!-- Main trend line -->
    <path d="M100,250 L150,240 L200,245 L250,200 L300,190 L350,210 L400,150 L450,170 L500,155 L550,180 L600,120 L650,140 L700,100" 
          fill="none" stroke="#d4a81e" stroke-width="3" />
    
    <!-- Price gradient under the line -->
    <linearGradient id="goldGradient" x1="0%" y1="0%" x2="0%" y2="100%">
      <stop offset="0%" stop-color="#d4a81e" stop-opacity="0.7"/>
      <stop offset="100%" stop-color="#d4a81e" stop-opacity="0.1"/>
    </linearGradient>
    <path d="M100,250 L150,240 L200,245 L250,200 L300,190 L350,210 L400,150 L450,170 L500,155 L550,180 L600,120 L650,140 L700,100 L700,400 L100,400 Z" 
          fill="url(#goldGradient)" stroke="none" />
  </g>
  
  <!-- Influencing Factors with arrows -->
  <g id="influence-factors">
    <!-- Interest Rates Factor -->
    <path d="M250,170 L250,140" stroke="#e74c3c" stroke-width="2" fill="none" marker-end="url(#arrow)" />
    <circle cx="250" cy="130" r="15" fill="#e74c3c" opacity="0.8" />
    <text x="250" y="134" font-family="Arial" font-size="10" text-anchor="middle" fill="white">IR</text>
    <text x="250" y="110" font-family="Arial" font-size="11" text-anchor="middle" fill="#333">Interest Rates</text>
    
    <!-- Inflation Factor -->
    <path d="M350,185 L350,155" stroke="#3498db" stroke-width="2" fill="none" marker-end="url(#arrow)" />
    <circle cx="350" cy="145" r="15" fill="#3498db" opacity="0.8" />
    <text x="350" y="149" font-family="Arial" font-size="10" text-anchor="middle" fill="white">INF</text>
    <text x="350" y="125" font-family="Arial" font-size="11" text-anchor="middle" fill="#333">Inflation</text>
    
    <!-- Geopolitical Tensions -->
    <path d="M500,130 L500,100" stroke="#9b59b6" stroke-width="2" fill="none" marker-end="url(#arrow)" />
    <circle cx="500" cy="90" r="15" fill="#9b59b6" opacity="0.8" />
    <text x="500" y="94" font-family="Arial" font-size="10" text-anchor="middle" fill="white">GP</text>
    <text x="500" y="70" font-family="Arial" font-size="11" text-anchor="middle" fill="#333">Geopolitical Tensions</text>
    
    <!-- US Dollar Strength -->
    <path d="M600,95 L600,65" stroke="#2ecc71" stroke-width="2" fill="none" marker-end="url(#arrow)" />
    <circle cx="600" cy="55" r="15" fill="#2ecc71" opacity="0.8" />
    <text x="600" y="59" font-family="Arial" font-size="10" text-anchor="middle" fill="white">USD</text>
    <text x="600" y="35" font-family="Arial" font-size="11" text-anchor="middle" fill="#333">USD Strength</text>
    
    <!-- Market Sentiment -->
    <path d="M450,145 L450,115" stroke="#f39c12" stroke-width="2" fill="none" marker-end="url(#arrow)" />
    <circle cx="450" cy="105" r="15" fill="#f39c12" opacity="0.8" />
    <text x="450" y="109" font-family="Arial" font-size="10" text-anchor="middle" fill="white">MS</text>
    <text x="450" y="85" font-family="Arial" font-size="11" text-anchor="middle" fill="#333">Market Sentiment</text>
  </g>
  
  <!-- Legend -->
  <g id="legend" transform="translate(120, 460)">
    <rect width="560" height="30" rx="5" fill="#fff" stroke="#ddd" />
    
    <!-- Gold Price -->
    <line x1="20" y1="15" x2="40" y2="15" stroke="#d4a81e" stroke-width="3" />
    <text x="45" y="19" font-family="Arial" font-size="12">Gold Price</text>
    
    <!-- Interest Rates -->
    <circle cx="130" cy="15" r="6" fill="#e74c3c" opacity="0.8" />
    <text x="140" y="19" font-family="Arial" font-size="12">Interest Rates</text>
    
    <!-- Inflation -->
    <circle cx="230" cy="15" r="6" fill="#3498db" opacity="0.8" />
    <text x="240" y="19" font-family="Arial" font-size="12">Inflation</text>
    
    <!-- Geopolitical Tensions -->
    <circle cx="320" cy="15" r="6" fill="#9b59b6" opacity="0.8" />
    <text x="330" y="19" font-family="Arial" font-size="12">Geopolitical</text>
    
    <!-- USD Strength -->
    <circle cx="410" cy="15" r="6" fill="#2ecc71" opacity="0.8" />
    <text x="420" y="19" font-family="Arial" font-size="12">USD Strength</text>
    
    <!-- Market Sentiment -->
    <circle cx="500" cy="15" r="6" fill="#f39c12" opacity="0.8" />
    <text x="510" y="19" font-family="Arial" font-size="12">Sentiment</text>
  </g>
  
  <!-- Arrow marker for factor lines -->
  <defs>
    <marker id="arrow" markerWidth="10" markerHeight="10" refX="9" refY="3" orient="auto" markerUnits="strokeWidth">
      <path d="M0,0 L0,6 L9,3 z" fill="#333" />
    </marker>
  </defs>
  
  <!-- Title -->
  <text x="400" y="30" font-family="Arial" font-size="18" font-weight="bold" text-anchor="middle">Gold Price Dynamics and Key Influencing Factors</text>
</svg>